<?xml version="1.0" encoding="UTF-8"?> <svg xmlns="http://www.w3.org/2000/svg" xmlns:xlink="http://www.w3.org/1999/xlink" width="23px" height="17px" viewBox="0 0 23 16"><title>Globe</title><defs></defs><g id="Globe" stroke="none" stroke-width="1" fill="none" fill-rule="evenodd"><g id="01-Atoms/Icons/02-Big/Global" transform="translate(7.000000, 0.000000)" fill="#000000"><path d="M8,0 C12.4166667,0 16,3.58333333 16,8 C16,12.4166667 12.4166667,16 8,16 C3.58333333,16 0,12.4166667 0,8 C0,3.58333333 3.58333333,0 8,0 Z M11.1554146,5.49175472 C11.1521793,5.49100662 11.1489828,5.49028322 11.1458333,5.48958333 C11.1458821,5.48956939 11.1459309,5.48955548 11.1459797,5.4895416 L11.1554146,5.49175472 Z M11.1459797,5.4895416 C11.2188754,5.46880572 11.3125418,5.51038879 11.375,5.46875 C11.5104167,5.375 11.4166667,5.33333333 11.3020833,5.30208333 C11.15625,5.26041667 10.96875,5.35416667 10.8541667,5.42708333 C10.7857776,5.47837513 10.7384353,5.56474492 10.66608,5.60558795 C10.6865569,5.54577932 10.7249642,5.41879769 10.75,5.38541667 C10.8125,5.3125 10.8958333,5.27083333 10.9791667,5.22916667 C11.15625,5.15625 11.3333333,5.13541667 11.5208333,5.10416667 C11.6973342,5.06263705 11.9152281,5.06250045 12.0507444,5.21721329 C12.0284654,5.18082595 12.2713136,4.96858992 12.3020833,4.95833333 C12.3958333,4.90625 12.5520833,4.92708333 12.6145833,4.83333333 C12.6354167,4.80208333 12.6354167,4.60416667 12.6354167,4.60416667 C12.459922,4.6248131 12.396964,4.46130865 12.3857096,4.31642979 C12.3852744,4.32312979 12.3644413,4.35430867 12.3229167,4.39583333 C12.3333333,4.23958333 12.1354167,4.35416667 12.0625,4.33333333 C11.8229167,4.27083333 11.8541667,4.10416667 11.78125,3.92708333 C11.7395833,3.83333333 11.625,3.80208333 11.5833333,3.70833333 C11.5416667,3.64583333 11.5208333,3.51041667 11.4270833,3.5 C11.3645833,3.48958333 11.25,3.71875 11.2291667,3.70833333 C11.1354167,3.65625 11.09375,3.72916667 11.0208333,3.77083333 C10.9583333,3.8125 10.90625,3.79166667 10.84375,3.82291667 C11.0275249,3.76165837 10.7709972,3.66037257 10.672459,3.67598834 C10.8121898,3.63475234 10.7394061,3.47901157 10.65625,3.40625 L10.7083333,3.40625 C10.6875,3.3125 10.3958333,3.22916667 10.3020833,3.16666667 C10.2083333,3.10416667 9.70833333,3 9.60416667,3.0625 C9.47916667,3.13541667 9.63541667,3.34375 9.63541667,3.44791667 C9.64583333,3.57291667 9.51041667,3.60416667 9.51041667,3.70833333 C9.51041667,3.88541667 9.84375,3.85416667 9.76041667,4.09375 C9.70833333,4.23958333 9.51041667,4.27083333 9.42708333,4.38541667 C9.34375,4.48958333 9.4375,4.67708333 9.52083333,4.75 C9.60416667,4.8125 9.375,4.91666667 9.34375,4.9375 C9.16666667,5.02083333 9.03125,4.76041667 8.98958333,4.60416667 C8.95833333,4.48958333 8.94791667,4.35416667 8.82291667,4.29166667 C8.76041667,4.27083333 8.5625,4.23958333 8.52083333,4.30208333 C8.45833333,4.14583333 8.23958333,4.08333333 8.09375,4.03125 C7.88541667,3.95833333 7.70833333,3.95833333 7.48958333,3.98958333 C7.5625,3.97916667 7.46875,3.65625 7.29166667,3.70833333 C7.34375,3.60416667 7.32291667,3.48958333 7.34375,3.38541667 C7.36458333,3.30208333 7.40625,3.21875 7.46875,3.14583333 C7.48958333,3.10416667 7.71875,2.86458333 7.64583333,2.85416667 C7.82291667,2.875 8.02083333,2.88541667 8.16666667,2.73958333 C8.26041667,2.64583333 8.30208333,2.48958333 8.39583333,2.38541667 C8.53125,2.22916667 8.69791667,2.42708333 8.84375,2.4375 C9.05208333,2.44791667 9.04166667,2.21875 8.92708333,2.11458333 C9.0625,2.125 8.94791667,1.875 8.875,1.84375 C8.78133044,1.81252681 8.42769094,1.9060892 8.61410186,1.97897892 C8.57107326,1.96216608 8.32237859,2.47820582 8.17708333,2.21875 C8.13541667,2.16666667 8.11458333,1.94791667 8.02083333,1.9375 C7.94141904,1.9375 7.89038458,2.02263951 7.8587149,2.08473782 C7.90568516,1.95817929 7.56244007,1.86457477 7.48958333,1.85416667 C7.64583333,1.75 7.52083333,1.63541667 7.40625,1.57291667 C7.32291667,1.52083333 7.0625,1.47916667 6.98958333,1.5625 C6.79166667,1.80208333 7.19791667,1.83333333 7.30208333,1.89583333 C7.33333333,1.91666667 7.45833333,1.98958333 7.38541667,2.04166667 C7.32291667,2.07291667 7.13541667,2.125 7.11458333,2.16666667 C7.05208333,2.26041667 7.1875,2.36458333 7.09375,2.45833333 C7.00205424,2.36663757 7.00004501,2.21515078 6.93177328,2.11108793 C7.00087299,2.21608798 6.55230758,2.15625 6.5625,2.15625 C6.40625,2.15625 6.15625,2.26041667 6.04166667,2.10416667 C6.02098103,2.06279539 6.02083438,1.82630375 6.08201347,1.87393608 C5.98899938,1.80140273 5.92679135,1.72897201 5.86458333,1.6875 C5.52083333,1.80208333 5.19791667,1.94791667 4.88541667,2.11458333 C4.92708333,2.125 4.95833333,2.125 5.01041667,2.10416667 C5.09375,2.07291667 5.16666667,2.02083333 5.25,1.97916667 C5.35416667,1.9375 5.57291667,1.8125 5.6875,1.90625 C5.69791667,1.88541667 5.72916667,1.86458333 5.73958333,1.85416667 C5.8125,1.9375 5.88541667,2.02083333 5.94791667,2.11458333 C5.86458333,2.07291667 5.72916667,2.09375 5.63541667,2.10416667 C5.5625,2.125 5.4375,2.14583333 5.40625,2.22916667 C5.4375,2.28125 5.47916667,2.36458333 5.45833333,2.41666667 C5.32291667,2.32291667 5.21875,2.16666667 5.03125,2.14583333 C4.94791667,2.14583333 4.86458333,2.14583333 4.80208333,2.15625 C3.80208333,2.70833333 2.95833333,3.51041667 2.35416667,4.46875 C2.39583333,4.51041667 2.4375,4.54166667 2.47916667,4.55208333 C2.58333333,4.58333333 2.47916667,4.88541667 2.67708333,4.72916667 C2.73958333,4.78125 2.75,4.85416667 2.70833333,4.92708333 C2.71875,4.91666667 3.13541667,5.1875 3.16666667,5.20833333 C3.23958333,5.27083333 3.35416667,5.34375 3.38541667,5.42708333 C3.40625,5.5 3.34375,5.58333333 3.28125,5.61458333 C3.27083333,5.59375 3.11458333,5.4375 3.09375,5.47916667 C3.06260487,5.53107522 3.09354096,5.81061493 3.20718258,5.80217837 C3.0419927,5.81539024 3.11449002,6.45861329 3.07291667,6.58333333 C3.07291667,6.59375 3.09375,6.59375 3.09375,6.59375 C3.06256645,6.71848419 3.16622427,7.20625283 3.37367238,7.15657492 C3.24206169,7.19066641 3.61475569,7.66677008 3.66666667,7.69791667 C3.80208333,7.79166667 3.95833333,7.85416667 4.05208333,7.98958333 C4.15625,8.13541667 4.15625,8.35416667 4.30208333,8.46875 C4.26041667,8.59375 4.52083333,8.73958333 4.51041667,8.91666667 C4.48958333,8.92708333 4.47916667,8.92708333 4.45833333,8.9375 C4.51041667,9.08333333 4.70833333,9.08333333 4.78125,9.21875 C4.82291667,9.30208333 4.78125,9.5 4.91666667,9.45833333 C4.9375,9.22916667 4.78125,9 4.66666667,8.8125 C4.60416667,8.70833333 4.54166667,8.61458333 4.48958333,8.51041667 C4.4375,8.41666667 4.42708333,8.30208333 4.38541667,8.19791667 C4.42708333,8.20833333 4.65625,8.29166667 4.63541667,8.32291667 C4.55208333,8.53125 4.96875,8.89583333 5.08333333,9.03125 C5.11458333,9.0625 5.35416667,9.375 5.22916667,9.375 C5.36458333,9.375 5.55208333,9.58333333 5.61458333,9.6875 C5.70833333,9.84375 5.6875,10.0416667 5.75,10.2083333 C5.8125,10.4166667 6.10416667,10.5104167 6.27083333,10.6041667 C6.41666667,10.6770833 6.54166667,10.78125 6.6875,10.8333333 C6.90625,10.9166667 6.95833333,10.84375 7.14583333,10.8125 C7.41666667,10.7708333 7.44791667,11.0729167 7.66666667,11.1875 C7.80179899,11.2602636 8.09252581,11.364146 8.23866275,11.3024748 C8.17998915,11.3273292 8.45844121,11.7501618 8.47916667,11.78125 C8.57291667,11.90625 8.75,11.96875 8.85416667,12.09375 C8.88541667,12.0729167 8.91666667,12.0416667 8.92708333,12 C8.88541667,12.1145833 9.08333333,12.3333333 9.1875,12.3125 C9.30208333,12.2916667 9.33333333,12.0625 9.33333333,11.9791667 C9.125,12.0833333 8.9375,12 8.82291667,11.7916667 C8.80208333,11.7395833 8.63541667,11.4479167 8.78125,11.4479167 C8.97916667,11.4479167 8.84375,11.2916667 8.82291667,11.1458333 C8.80208333,11 8.65625,10.90625 8.58333333,10.78125 C8.52083333,10.90625 8.3125,10.875 8.25,10.7708333 C8.25,10.8020833 8.21875,10.8541667 8.21875,10.8958333 C8.16666667,10.8958333 8.11458333,10.90625 8.0625,10.8854167 C8.08333333,10.7604167 8.09375,10.6041667 8.125,10.46875 C8.17708333,10.28125 8.52083333,9.91666667 8.07291667,9.9375 C7.91666667,9.94791667 7.85416667,10.0104167 7.80208333,10.1458333 C7.75,10.2708333 7.77083333,10.3854167 7.625,10.4479167 C7.53125,10.4895833 7.21875,10.46875 7.125,10.4166667 C6.92708333,10.3020833 6.79166667,9.9375 6.79166667,9.72916667 C6.78125,9.44791667 6.92708333,9.19791667 6.79166667,8.9375 C6.85416667,8.88541667 6.91666667,8.78125 6.98958333,8.72916667 C7.05208333,8.6875 7.125,8.76041667 7.15625,8.63541667 C7.1278657,8.6164938 7.09088761,8.58038334 7.07653861,8.57391964 C7.23446237,8.64263352 7.5220657,8.46969797 7.65625,8.57291667 C7.73958333,8.63541667 7.83333333,8.65625 7.88541667,8.55208333 C7.89583333,8.52083333 7.8125,8.39583333 7.85416667,8.3125 C7.88541667,8.48958333 8,8.52083333 8.15625,8.40625 C8.21875,8.46875 8.38541667,8.44791667 8.5,8.51041667 C8.61458333,8.58333333 8.63541667,8.69791667 8.77083333,8.54166667 C8.85416667,8.66666667 8.86458333,8.66666667 8.89583333,8.79166667 C8.92708333,8.90625 8.98958333,9.19791667 9.09375,9.25 C9.3125,9.38541667 9.26041667,9.02083333 9.23958333,8.89583333 C9.22916667,8.88541667 9.22916667,8.54166667 9.21875,8.54166667 C8.88541667,8.46875 9.01041667,8.20833333 9.19791667,8.03125 C9.22916667,8.01041667 9.46875,7.92708333 9.57291667,7.84375 C9.66666667,7.76041667 9.78125,7.61458333 9.72916667,7.47916667 C9.78125,7.47916667 9.82291667,7.4375 9.84375,7.38541667 C9.81339613,7.37529871 9.69459193,7.27673043 9.66871123,7.28063163 C9.73953599,7.23930025 9.72907231,7.17694179 9.6875,7.11458333 C9.79166667,7.05208333 9.73958333,6.9375 9.84375,6.89583333 C9.95833333,7.05208333 10.1875,6.875 10.0729167,6.75 C10.1770833,6.60416667 10.4166667,6.67708333 10.4791667,6.54166667 C10.6354167,6.58333333 10.5208333,6.38541667 10.6041667,6.27083333 C10.6770833,6.17708333 10.8020833,6.17708333 10.8958333,6.125 C10.8958333,6.13541667 11.15625,5.97916667 11.0729167,5.96875 C11.25,5.98958333 11.6041667,5.80208333 11.3333333,5.64583333 C11.3736002,5.55523282 11.248482,5.513275 11.1554146,5.49175472 L11.1459797,5.4895416 Z M9.66871123,7.28063163 C9.66794716,7.28074681 9.66726409,7.28095129 9.66666667,7.28125 C9.6668318,7.28115564 9.6669965,7.28106117 9.66716077,7.2809666 L9.66871123,7.28063163 Z M7.07653861,8.57391964 C7.07508993,8.57326706 7.0738719,8.57291667 7.07291667,8.57291667 C7.07433862,8.57358025 7.0757718,8.57422312 7.07721596,8.57484569 L7.07653861,8.57391964 Z M8.23863997,11.3024395 C8.23894526,11.30231 8.23925969,11.3021912 8.23958333,11.3020833 C8.23927711,11.3022146 8.23897025,11.3023451 8.23866275,11.3024748 L8.23863997,11.3024395 Z M3.37367238,7.15657492 C3.37411445,7.15646906 3.37455699,7.15636075 3.375,7.15625 C3.37455188,7.15635341 3.37410935,7.15646173 3.37367238,7.15657492 Z M3.20721712,5.80216287 C3.20758799,5.80213318 3.20796006,5.80210666 3.20833333,5.80208333 C3.20794881,5.80211829 3.20756523,5.80214996 3.20718258,5.80217837 L3.20721712,5.80216287 Z M6.93177328,2.11108793 C6.9302438,2.10875664 6.92868107,2.10644915 6.92708333,2.10416667 C6.92910157,2.10663341 6.93085912,2.10901808 6.93236638,2.11132307 L6.93177328,2.11108793 Z M7.8587149,2.08473782 C7.85715202,2.08780233 7.85563631,2.09081072 7.85416667,2.09375 C7.85420947,2.09363871 7.85425201,2.09352744 7.85429428,2.09341621 L7.8587149,2.08473782 Z M8.61411364,1.97895812 C8.61427303,1.97902031 8.6144296,1.9790898 8.61458333,1.97916667 C8.61442244,1.9791041 8.61426196,1.97904152 8.61410186,1.97897892 L8.61411364,1.97895812 Z M10.672459,3.67598834 C10.6704617,3.67630487 10.6685292,3.67666943 10.6666667,3.67708333 C10.6669769,3.67699471 10.6672861,3.67690556 10.6675943,3.6768159 L10.672459,3.67598834 Z M12.3857096,4.31642979 C12.3856078,4.31511828 12.3855101,4.3138083 12.3854159,4.3125 C12.3854167,4.3125355 12.3854164,4.31257124 12.3854159,4.31260723 L12.3857096,4.31642979 Z M12.0507444,5.21721329 C12.0511916,5.21772384 12.0516379,5.21823608 12.0520833,5.21875 C12.0516031,5.21826977 12.0511893,5.21774526 12.0508401,5.2171779 L12.0507444,5.21721329 Z M10.66608,5.60558795 C10.650269,5.6145129 10.6332637,5.62126393 10.6145833,5.625 C10.6249404,5.62292859 10.6352974,5.61385469 10.6454907,5.60031754 L10.66608,5.60558795 Z M9.51187673,12.0310247 C9.50554741,12.0252944 9.5013578,12.0185635 9.5,12.0104167 C9.5004526,12.0131323 9.50090028,12.0158491 9.50134317,12.0185671 L9.51187673,12.0310247 Z M9.50134317,12.0185671 C9.54167281,12.2660729 9.54223242,12.5235489 9.59375,12.7708333 C9.625,12.9166667 9.59375,13.15625 9.46875,13.2708333 C9.34375,13.3854167 9.1875,13.5104167 9.16666667,13.6875 C9.14583333,13.8125 9.17708333,13.9270833 9.29166667,13.9583333 C9.30208333,14.1145833 9.125,14.2291667 9.13541667,14.3958333 C9.13541667,14.40625 9.14583333,14.5104167 9.15625,14.5625 C10.5833333,14.3125 11.8541667,13.6041667 12.8125,12.59375 C12.75,12.53125 12.6354167,12.5520833 12.5520833,12.5104167 C12.46875,12.4791667 12.40625,12.4479167 12.3020833,12.4270833 C12.3229167,12.21875 12.09375,12.1458333 11.9479167,12.0416667 C11.8125,11.9375 11.7291667,11.8229167 11.53125,11.8645833 C11.5104167,11.875 11.3020833,11.9479167 11.34375,11.9895833 C11.2083333,11.875 11.1458333,11.8125 10.96875,11.7604167 C10.8020833,11.7083333 10.6875,11.5 10.5208333,11.6875 C10.4719991,11.7363343 10.4660909,11.7994772 10.4611836,11.8601588 C10.4372216,11.77351 10.5270066,11.6865746 10.4583333,11.6041667 C10.3333333,11.4583333 10.1145833,11.6979167 10.0104167,11.7604167 C9.94791667,11.8125 9.875,11.8333333 9.83333333,11.8958333 C9.78125,11.96875 9.76041667,12.0625 9.71875,12.1354167 C9.69157341,12.0629457 9.5541041,12.0692553 9.51187673,12.0310247 L9.50134317,12.0185671 Z M10.4611836,11.8601588 C10.4577168,11.9030274 10.4547495,11.9446676 10.4375,11.9791667 C10.3913586,11.940124 10.391174,11.8986625 10.4068641,11.8560185 L10.4611836,11.8601588 Z" id="globe---FontAwesome"></path></g></g></svg> 